<svg width="432" height="142" viewBox="0 0 432 142" fill="none" xmlns="http://www.w3.org/2000/svg">
<path d="M8.69141 104V96.1387C8.69141 92.0371 9.96094 87.5775 12.5 82.7598C15.0391 77.9095 19.3034 73.1732 25.293 68.5508L30.4199 64.5957C37.2559 59.3223 41.6016 55.3835 43.457 52.7793C45.2799 50.1751 46.1914 47.457 46.1914 44.625C46.1914 41.7279 44.9707 39.1562 42.5293 36.9102C40.0879 34.6641 36.5723 33.541 31.9824 33.541C27.8158 33.541 24.7233 34.3548 22.7051 35.9824C20.6868 37.5775 19.6777 39.3841 19.6777 41.4023V41.8906H10.5957V41.4023C10.5957 38.7331 11.4909 36.2103 13.2812 33.834C15.1042 31.4577 17.5456 29.5534 20.6055 28.1211C23.6979 26.6888 27.5879 25.9727 32.2754 25.9727C40.8366 25.9727 46.9401 27.7956 50.5859 31.4414C54.2318 35.0547 56.0547 39.4004 56.0547 44.4785C56.0547 47.1803 55.485 49.8984 54.3457 52.6328C53.2064 55.3672 50.944 58.2318 47.5586 61.2266C44.2057 64.1888 41.4714 66.4023 39.3555 67.8672L35.6445 70.4062C23.9909 78.4141 18.1641 86.2103 18.1641 93.7949V95.6504H57.5684V104H8.69141Z" fill="black"/>
<path d="M236.352 55.0469L235.625 60.9062C232.484 57.7188 228.742 56.125 224.398 56.125C220.57 56.125 217.477 57.4844 215.117 60.2031C212.742 62.9062 211.555 66.4297 211.555 70.7734C211.555 74.8359 212.695 78.0078 214.977 80.2891C217.242 82.5547 220.445 83.6875 224.586 83.6875C228.039 83.6875 231.086 82.625 233.727 80.5L232.953 86.8516C229.625 88.0859 226.523 88.7031 223.648 88.7031C218.398 88.7031 214.172 87.0391 210.969 83.7109C207.766 80.4141 206.164 76.0234 206.164 70.5391C206.164 64.9453 207.867 60.3047 211.273 56.6172C214.695 52.9297 218.992 51.0859 224.164 51.0859C228.242 51.0859 232.305 52.4062 236.352 55.0469ZM253.25 72.7422L262.344 88H256.672L248.094 73.1172H246.148L244.32 88H238.953L243.406 51.8125H250.508C252.82 51.8125 254.656 52.0234 256.016 52.4453C257.359 52.8359 258.531 53.5547 259.531 54.6016C261.422 56.5391 262.367 59.0391 262.367 62.1016C262.367 67.7109 259.328 71.2578 253.25 72.7422ZM248.141 56.8047L246.734 68.4297H249.195C251.008 68.4297 252.359 68.2578 253.25 67.9141C254.203 67.5703 255 66.9844 255.641 66.1562C256.516 65 256.953 63.6406 256.953 62.0781C256.953 60.25 256.422 58.9141 255.359 58.0703C254.312 57.2266 252.656 56.8047 250.391 56.8047H248.141ZM290.633 51.8125L290.023 56.8047H276.734L275.586 66.1797H288.875L288.312 70.8203H275.023L273.523 83.0078H286.812L286.18 88H267.547L272 51.8125H290.633ZM297.547 51.8125H304.859C307.625 51.8125 309.75 51.9531 311.234 52.2344C312.75 52.5 314.148 53.0078 315.43 53.7578C317.789 55.1172 319.648 57.1562 321.008 59.875C322.367 62.5938 323.047 65.6328 323.047 68.9922C323.047 72.5547 322.281 75.8516 320.75 78.8828C319.984 80.3828 319.094 81.7031 318.078 82.8438C317.062 83.9688 315.898 84.9297 314.586 85.7266C313.055 86.6016 311.453 87.2031 309.781 87.5312C308.891 87.6875 307.828 87.8047 306.594 87.8828C305.359 87.9609 303.914 88 302.258 88H293.094L297.547 51.8125ZM302.281 56.8047L299.07 83.0078H303.148C306.148 83.0078 308.492 82.7109 310.18 82.1172C311.82 81.5391 313.25 80.4609 314.469 78.8828C316.594 76.1953 317.656 72.8281 317.656 68.7812C317.656 66.2656 317.18 64.0625 316.227 62.1719C315.258 60.25 313.945 58.8594 312.289 58C310.711 57.2031 308.375 56.8047 305.281 56.8047H302.281ZM337.273 51.8125L332.82 88H327.453L331.906 51.8125H337.273ZM355.391 56.8047L351.547 88H346.18L350.023 56.8047H341.375L341.984 51.8125H364.273L363.664 56.8047H355.391Z" fill="#ACA8A3"/>
<path d="M430.536 102.536C432.488 100.583 432.488 97.4171 430.536 95.4645L398.716 63.6447C396.763 61.692 393.597 61.692 391.645 63.6447C389.692 65.5973 389.692 68.7631 391.645 70.7157L419.929 99L391.645 127.284C389.692 129.237 389.692 132.403 391.645 134.355C393.597 136.308 396.763 136.308 398.716 134.355L430.536 102.536ZM13 104L427 104V94L13 94L13 104Z" fill="black"/>
<path d="M83.084 70.8169L81.2163 86H76.1846L78.1182 70.4653L69.3071 52.0742H74.7124L80.9746 65.5654L89.8735 52.0742H95.6523L83.084 70.8169ZM130.018 68.3779C130.018 72.2451 128.992 75.7534 126.941 78.9028C125.315 81.3784 123.191 83.29 120.569 84.6377C117.947 85.9854 115.047 86.6592 111.868 86.6592C106.785 86.6592 102.64 85.0405 99.4316 81.8032C96.2236 78.5513 94.6196 74.3472 94.6196 69.1909C94.6196 64.0493 96.3188 59.8013 99.7173 56.4468C103.13 53.0776 107.437 51.3931 112.637 51.3931C117.837 51.3931 122.034 52.9531 125.228 56.0732C128.421 59.1787 130.018 63.2803 130.018 68.3779ZM124.964 68.334C124.964 64.6279 123.865 61.6616 121.668 59.4351C119.471 57.2231 116.519 56.1172 112.813 56.1172C109.092 56.1172 105.965 57.3623 103.431 59.8525C100.926 62.3428 99.6733 65.4556 99.6733 69.1909C99.6733 72.8823 100.838 75.9365 103.167 78.3535C105.496 80.7559 108.44 81.957 112 81.957C115.706 81.957 118.79 80.6606 121.25 78.0679C123.726 75.5044 124.964 72.2598 124.964 68.334ZM163.702 52.0742L161.241 72.1572C160.684 76.5811 159.644 79.8184 158.121 81.8691C155.674 85.0625 152.276 86.6592 147.925 86.6592C144.439 86.6592 141.531 85.6045 139.202 83.4951C136.888 81.3564 135.73 78.7051 135.73 75.541C135.73 74.8672 135.752 74.1567 135.796 73.4097C135.855 72.6626 135.936 71.8716 136.038 71.0366L138.367 52.0742H143.377L140.982 71.6738C140.909 72.2598 140.85 72.8018 140.806 73.2998C140.777 73.7979 140.762 74.2593 140.762 74.6841C140.762 76.9399 141.392 78.7197 142.652 80.0234C143.926 81.3271 145.655 81.979 147.837 81.979C150.386 81.979 152.32 81.1587 153.638 79.5181C154.957 77.8628 155.85 75.1748 156.319 71.4541L158.692 52.0742H163.702ZM181.082 71.6958L189.607 86H184.29L176.248 72.0474H174.424L172.71 86H167.679L171.854 52.0742H178.511C180.679 52.0742 182.4 52.272 183.675 52.6675C184.935 53.0337 186.033 53.7075 186.971 54.689C188.743 56.5054 189.629 58.8491 189.629 61.7202C189.629 66.979 186.78 70.3042 181.082 71.6958ZM176.292 56.7544L174.974 67.6528H177.281C178.98 67.6528 180.247 67.4917 181.082 67.1694C181.976 66.8472 182.723 66.2979 183.323 65.5215C184.144 64.4375 184.554 63.1631 184.554 61.6982C184.554 59.9844 184.056 58.7319 183.06 57.9409C182.078 57.1499 180.525 56.7544 178.401 56.7544H176.292Z" fill="#ACA8A3"/>
<line opacity="0.5" x1="57.4702" y1="107.712" x2="73.4702" y2="88.7117" stroke="white" stroke-width="4"/>
<line opacity="0.5" x1="65.4702" y1="106.712" x2="81.4702" y2="87.7117" stroke="white" stroke-width="4"/>
</svg>
