<svg width="162" height="96" viewBox="0 0 162 96" fill="none" xmlns="http://www.w3.org/2000/svg">
<path d="M11.2578 75V69.3398C11.2578 66.3867 12.1719 63.1758 14 59.707C15.8281 56.2148 18.8984 52.8047 23.2109 49.4766L26.9023 46.6289C31.8242 42.832 34.9531 39.9961 36.2891 38.1211C37.6016 36.2461 38.2578 34.2891 38.2578 32.25C38.2578 30.1641 37.3789 28.3125 35.6211 26.6953C33.8633 25.0781 31.332 24.2695 28.0273 24.2695C25.0273 24.2695 22.8008 24.8555 21.3477 26.0273C19.8945 27.1758 19.168 28.4766 19.168 29.9297V30.2812H12.6289V29.9297C12.6289 28.0078 13.2734 26.1914 14.5625 24.4805C15.875 22.7695 17.6328 21.3984 19.8359 20.3672C22.0625 19.3359 24.8633 18.8203 28.2383 18.8203C34.4023 18.8203 38.7969 20.1328 41.4219 22.7578C44.0469 25.3594 45.3594 28.4883 45.3594 32.1445C45.3594 34.0898 44.9492 36.0469 44.1289 38.0156C43.3086 39.9844 41.6797 42.0469 39.2422 44.2031C36.8281 46.3359 34.8594 47.9297 33.3359 48.9844L30.6641 50.8125C22.2734 56.5781 18.0781 62.1914 18.0781 67.6523V68.9883H46.4492V75H11.2578Z" fill="black"/>
<path d="M58.5781 33.9023L57.582 42H54.8984L55.9297 33.7148L51.2305 23.9062H54.1133L57.4531 31.1016L62.1992 23.9062H65.2812L58.5781 33.9023ZM83.6094 32.6016C83.6094 34.6641 83.0625 36.5352 81.9688 38.2148C81.1016 39.5352 79.9688 40.5547 78.5703 41.2734C77.1719 41.9922 75.625 42.3516 73.9297 42.3516C71.2188 42.3516 69.0078 41.4883 67.2969 39.7617C65.5859 38.0273 64.7305 35.7852 64.7305 33.0352C64.7305 30.293 65.6367 28.0273 67.4492 26.2383C69.2695 24.4414 71.5664 23.543 74.3398 23.543C77.1133 23.543 79.3516 24.375 81.0547 26.0391C82.7578 27.6953 83.6094 29.8828 83.6094 32.6016ZM80.9141 32.5781C80.9141 30.6016 80.3281 29.0195 79.1562 27.832C77.9844 26.6523 76.4102 26.0625 74.4336 26.0625C72.4492 26.0625 70.7812 26.7266 69.4297 28.0547C68.0938 29.3828 67.4258 31.043 67.4258 33.0352C67.4258 35.0039 68.0469 36.6328 69.2891 37.9219C70.5312 39.2031 72.1016 39.8438 74 39.8438C75.9766 39.8438 77.6211 39.1523 78.9336 37.7695C80.2539 36.4023 80.9141 34.6719 80.9141 32.5781ZM101.574 23.9062L100.262 34.6172C99.9648 36.9766 99.4102 38.7031 98.5977 39.7969C97.293 41.5 95.4805 42.3516 93.1602 42.3516C91.3008 42.3516 89.75 41.7891 88.5078 40.6641C87.2734 39.5234 86.6562 38.1094 86.6562 36.4219C86.6562 36.0625 86.668 35.6836 86.6914 35.2852C86.7227 34.8867 86.7656 34.4648 86.8203 34.0195L88.0625 23.9062H90.7344L89.457 34.3594C89.418 34.6719 89.3867 34.9609 89.3633 35.2266C89.3477 35.4922 89.3398 35.7383 89.3398 35.9648C89.3398 37.168 89.6758 38.1172 90.3477 38.8125C91.0273 39.5078 91.9492 39.8555 93.1133 39.8555C94.4727 39.8555 95.5039 39.418 96.207 38.543C96.9102 37.6602 97.3867 36.2266 97.6367 34.2422L98.9023 23.9062H101.574ZM110.844 34.3711L115.391 42H112.555L108.266 34.5586H107.293L106.379 42H103.695L105.922 23.9062H109.473C110.629 23.9062 111.547 24.0117 112.227 24.2227C112.898 24.418 113.484 24.7773 113.984 25.3008C114.93 26.2695 115.402 27.5195 115.402 29.0508C115.402 31.8555 113.883 33.6289 110.844 34.3711ZM108.289 26.4023L107.586 32.2148H108.816C109.723 32.2148 110.398 32.1289 110.844 31.957C111.32 31.7852 111.719 31.4922 112.039 31.0781C112.477 30.5 112.695 29.8203 112.695 29.0391C112.695 28.125 112.43 27.457 111.898 27.0352C111.375 26.6133 110.547 26.4023 109.414 26.4023H108.289ZM66.6758 57.5234L66.3125 60.4531C64.7422 58.8594 62.8711 58.0625 60.6992 58.0625C58.7852 58.0625 57.2383 58.7422 56.0586 60.1016C54.8711 61.4531 54.2773 63.2148 54.2773 65.3867C54.2773 67.418 54.8477 69.0039 55.9883 70.1445C57.1211 71.2773 58.7227 71.8438 60.793 71.8438C62.5195 71.8438 64.043 71.3125 65.3633 70.25L64.9766 73.4258C63.3125 74.043 61.7617 74.3516 60.3242 74.3516C57.6992 74.3516 55.5859 73.5195 53.9844 71.8555C52.3828 70.207 51.582 68.0117 51.582 65.2695C51.582 62.4727 52.4336 60.1523 54.1367 58.3086C55.8477 56.4648 57.9961 55.543 60.582 55.543C62.6211 55.543 64.6523 56.2031 66.6758 57.5234ZM75.125 66.3711L79.6719 74H76.8359L72.5469 66.5586H71.5742L70.6602 74H67.9766L70.2031 55.9062H73.7539C74.9102 55.9062 75.8281 56.0117 76.5078 56.2227C77.1797 56.418 77.7656 56.7773 78.2656 57.3008C79.2109 58.2695 79.6836 59.5195 79.6836 61.0508C79.6836 63.8555 78.1641 65.6289 75.125 66.3711ZM72.5703 58.4023L71.8672 64.2148H73.0977C74.0039 64.2148 74.6797 64.1289 75.125 63.957C75.6016 63.7852 76 63.4922 76.3203 63.0781C76.7578 62.5 76.9766 61.8203 76.9766 61.0391C76.9766 60.125 76.7109 59.457 76.1797 59.0352C75.6562 58.6133 74.8281 58.4023 73.6953 58.4023H72.5703ZM93.8164 55.9062L93.5117 58.4023H86.8672L86.293 63.0898H92.9375L92.6562 65.4102H86.0117L85.2617 71.5039H91.9062L91.5898 74H82.2734L84.5 55.9062H93.8164ZM97.2734 55.9062H100.93C102.312 55.9062 103.375 55.9766 104.117 56.1172C104.875 56.25 105.574 56.5039 106.215 56.8789C107.395 57.5586 108.324 58.5781 109.004 59.9375C109.684 61.2969 110.023 62.8164 110.023 64.4961C110.023 66.2773 109.641 67.9258 108.875 69.4414C108.492 70.1914 108.047 70.8516 107.539 71.4219C107.031 71.9844 106.449 72.4648 105.793 72.8633C105.027 73.3008 104.227 73.6016 103.391 73.7656C102.945 73.8438 102.414 73.9023 101.797 73.9414C101.18 73.9805 100.457 74 99.6289 74H95.0469L97.2734 55.9062ZM99.6406 58.4023L98.0352 71.5039H100.074C101.574 71.5039 102.746 71.3555 103.59 71.0586C104.41 70.7695 105.125 70.2305 105.734 69.4414C106.797 68.0977 107.328 66.4141 107.328 64.3906C107.328 63.1328 107.09 62.0312 106.613 61.0859C106.129 60.125 105.473 59.4297 104.645 59C103.855 58.6016 102.688 58.4023 101.141 58.4023H99.6406ZM117.137 55.9062L114.91 74H112.227L114.453 55.9062H117.137ZM126.195 58.4023L124.273 74H121.59L123.512 58.4023H119.188L119.492 55.9062H130.637L130.332 58.4023H126.195Z" fill="black"/>
<path d="M44.9005 74.9822L44.9005 48.5" stroke="black" stroke-width="4"/>
<path d="M153.061 51.0607C153.646 50.4749 153.646 49.5251 153.061 48.9393L143.515 39.3934C142.929 38.8076 141.979 38.8076 141.393 39.3934C140.808 39.9792 140.808 40.9289 141.393 41.5147L149.879 50L141.393 58.4853C140.808 59.0711 140.808 60.0208 141.393 60.6066C141.979 61.1924 142.929 61.1924 143.515 60.6066L153.061 51.0607ZM47 51.5L152 51.5L152 48.5L47 48.5L47 51.5Z" fill="black"/>
<circle cx="45" cy="51" r="5" fill="#E0AE62"/>
<circle cx="45" cy="51" r="3" fill="#D9D9D9"/>
</svg>
