<svg width="282" height="192" viewBox="0 0 282 192" fill="none" xmlns="http://www.w3.org/2000/svg">
<path d="M12.5156 150V138.68C12.5156 132.773 14.3438 126.352 18 119.414C21.6562 112.43 27.7969 105.609 36.4219 98.9531L43.8047 93.2578C53.6484 85.6641 59.9062 79.9922 62.5781 76.2422C65.2031 72.4922 66.5156 68.5781 66.5156 64.5C66.5156 60.3281 64.7578 56.625 61.2422 53.3906C57.7266 50.1562 52.6641 48.5391 46.0547 48.5391C40.0547 48.5391 35.6016 49.7109 32.6953 52.0547C29.7891 54.3516 28.3359 56.9531 28.3359 59.8594V60.5625H15.2578V59.8594C15.2578 56.0156 16.5469 52.3828 19.125 48.9609C21.75 45.5391 25.2656 42.7969 29.6719 40.7344C34.125 38.6719 39.7266 37.6406 46.4766 37.6406C58.8047 37.6406 67.5938 40.2656 72.8438 45.5156C78.0938 50.7188 80.7188 56.9766 80.7188 64.2891C80.7188 68.1797 79.8984 72.0938 78.2578 76.0312C76.6172 79.9688 73.3594 84.0938 68.4844 88.4062C63.6562 92.6719 59.7188 95.8594 56.6719 97.9688L51.3281 101.625C34.5469 113.156 26.1562 124.383 26.1562 135.305V137.977H82.8984V150H12.5156Z" fill="#ACA8A3"/>
<path d="M123.352 114.047L122.625 119.906C119.484 116.719 115.742 115.125 111.398 115.125C107.57 115.125 104.477 116.484 102.117 119.203C99.7422 121.906 98.5547 125.43 98.5547 129.773C98.5547 133.836 99.6953 137.008 101.977 139.289C104.242 141.555 107.445 142.688 111.586 142.688C115.039 142.688 118.086 141.625 120.727 139.5L119.953 145.852C116.625 147.086 113.523 147.703 110.648 147.703C105.398 147.703 101.172 146.039 97.9688 142.711C94.7656 139.414 93.1641 135.023 93.1641 129.539C93.1641 123.945 94.8672 119.305 98.2734 115.617C101.695 111.93 105.992 110.086 111.164 110.086C115.242 110.086 119.305 111.406 123.352 114.047ZM140.25 131.742L149.344 147H143.672L135.094 132.117H133.148L131.32 147H125.953L130.406 110.812H137.508C139.82 110.812 141.656 111.023 143.016 111.445C144.359 111.836 145.531 112.555 146.531 113.602C148.422 115.539 149.367 118.039 149.367 121.102C149.367 126.711 146.328 130.258 140.25 131.742ZM135.141 115.805L133.734 127.43H136.195C138.008 127.43 139.359 127.258 140.25 126.914C141.203 126.57 142 125.984 142.641 125.156C143.516 124 143.953 122.641 143.953 121.078C143.953 119.25 143.422 117.914 142.359 117.07C141.312 116.227 139.656 115.805 137.391 115.805H135.141ZM177.633 110.812L177.023 115.805H163.734L162.586 125.18H175.875L175.312 129.82H162.023L160.523 142.008H173.812L173.18 147H154.547L159 110.812H177.633ZM184.547 110.812H191.859C194.625 110.812 196.75 110.953 198.234 111.234C199.75 111.5 201.148 112.008 202.43 112.758C204.789 114.117 206.648 116.156 208.008 118.875C209.367 121.594 210.047 124.633 210.047 127.992C210.047 131.555 209.281 134.852 207.75 137.883C206.984 139.383 206.094 140.703 205.078 141.844C204.062 142.969 202.898 143.93 201.586 144.727C200.055 145.602 198.453 146.203 196.781 146.531C195.891 146.688 194.828 146.805 193.594 146.883C192.359 146.961 190.914 147 189.258 147H180.094L184.547 110.812ZM189.281 115.805L186.07 142.008H190.148C193.148 142.008 195.492 141.711 197.18 141.117C198.82 140.539 200.25 139.461 201.469 137.883C203.594 135.195 204.656 131.828 204.656 127.781C204.656 125.266 204.18 123.062 203.227 121.172C202.258 119.25 200.945 117.859 199.289 117C197.711 116.203 195.375 115.805 192.281 115.805H189.281ZM224.273 110.812L219.82 147H214.453L218.906 110.812H224.273ZM242.391 115.805L238.547 147H233.18L237.023 115.805H228.375L228.984 110.812H251.273L250.664 115.805H242.391Z" fill="#ACA8A3"/>
<path d="M79.5211 149.998L79.9606 100.482" stroke="#ACA8A3" stroke-width="10"/>
<path d="M272.773 103.768C273.749 102.791 273.749 101.209 272.773 100.232L256.863 84.3223C255.887 83.346 254.304 83.346 253.328 84.3223C252.351 85.2986 252.351 86.8816 253.328 87.8579L267.47 102L253.328 116.142C252.351 117.118 252.351 118.701 253.328 119.678C254.304 120.654 255.887 120.654 256.863 119.678L272.773 103.768ZM83.9947 104.5H271.005V99.5H83.9947V104.5Z" fill="black"/>
<circle cx="80" cy="103" r="9.5" fill="#E0AE62" stroke="black"/>
<path d="M113.084 77.8169L111.216 93H106.185L108.118 77.4653L99.3071 59.0742H104.712L110.975 72.5654L119.874 59.0742H125.652L113.084 77.8169ZM160.018 75.3779C160.018 79.2451 158.992 82.7534 156.941 85.9028C155.315 88.3784 153.191 90.29 150.569 91.6377C147.947 92.9854 145.047 93.6592 141.868 93.6592C136.785 93.6592 132.64 92.0405 129.432 88.8032C126.224 85.5513 124.62 81.3472 124.62 76.1909C124.62 71.0493 126.319 66.8013 129.717 63.4468C133.13 60.0776 137.437 58.3931 142.637 58.3931C147.837 58.3931 152.034 59.9531 155.228 63.0732C158.421 66.1787 160.018 70.2803 160.018 75.3779ZM154.964 75.334C154.964 71.6279 153.865 68.6616 151.668 66.4351C149.471 64.2231 146.519 63.1172 142.813 63.1172C139.092 63.1172 135.965 64.3623 133.431 66.8525C130.926 69.3428 129.673 72.4556 129.673 76.1909C129.673 79.8823 130.838 82.9365 133.167 85.3535C135.496 87.7559 138.44 88.957 142 88.957C145.706 88.957 148.79 87.6606 151.25 85.0679C153.726 82.5044 154.964 79.2598 154.964 75.334ZM193.702 59.0742L191.241 79.1572C190.684 83.5811 189.644 86.8184 188.121 88.8691C185.674 92.0625 182.276 93.6592 177.925 93.6592C174.439 93.6592 171.531 92.6045 169.202 90.4951C166.888 88.3564 165.73 85.7051 165.73 82.541C165.73 81.8672 165.752 81.1567 165.796 80.4097C165.855 79.6626 165.936 78.8716 166.038 78.0366L168.367 59.0742H173.377L170.982 78.6738C170.909 79.2598 170.85 79.8018 170.806 80.2998C170.777 80.7979 170.762 81.2593 170.762 81.6841C170.762 83.9399 171.392 85.7197 172.652 87.0234C173.926 88.3271 175.655 88.979 177.837 88.979C180.386 88.979 182.32 88.1587 183.638 86.5181C184.957 84.8628 185.85 82.1748 186.319 78.4541L188.692 59.0742H193.702ZM211.082 78.6958L219.607 93H214.29L206.248 79.0474H204.424L202.71 93H197.679L201.854 59.0742H208.511C210.679 59.0742 212.4 59.272 213.675 59.6675C214.935 60.0337 216.033 60.7075 216.971 61.689C218.743 63.5054 219.629 65.8491 219.629 68.7202C219.629 73.979 216.78 77.3042 211.082 78.6958ZM206.292 63.7544L204.974 74.6528H207.281C208.98 74.6528 210.247 74.4917 211.082 74.1694C211.976 73.8472 212.723 73.2979 213.323 72.5215C214.144 71.4375 214.554 70.1631 214.554 68.6982C214.554 66.9844 214.056 65.7319 213.06 64.9409C212.078 64.1499 210.525 63.7544 208.401 63.7544H206.292Z" fill="#ACA8A3"/>
</svg>
