<svg width="972" height="176" viewBox="0 0 972 176" fill="none" xmlns="http://www.w3.org/2000/svg">
<ellipse cx="142" cy="88" rx="142" ry="88" fill="#D9D9D9"/>
<ellipse cx="830" cy="88" rx="142" ry="88" fill="#AFF07C"/>
<ellipse cx="486" cy="88" rx="142" ry="88" fill="#D9D9D9"/>
<g filter="url(#filter0_i_9_14)">
<rect x="245" y="69" width="116" height="39" fill="#D79720"/>
<path d="M400 88.5L325 133.966V43.0337L400 88.5Z" fill="#D79720"/>
</g>
<g filter="url(#filter1_i_9_14)">
<rect x="588" y="69" width="116" height="39" fill="#D79720"/>
<path d="M743 88.5L668 133.966V43.0337L743 88.5Z" fill="#D79720"/>
</g>
<path d="M80.7908 75V47.8H88.7908C91.4041 47.8 93.3241 48.44 94.5508 49.72C95.8041 50.9733 96.4308 52.6667 96.4308 54.8V55.68C96.4308 56.8533 96.1641 57.8933 95.6308 58.8C95.0974 59.7067 94.3241 60.4267 93.3108 60.96C94.7241 61.4133 95.7908 62.16 96.5108 63.2C97.2574 64.2133 97.6308 65.44 97.6308 66.88V67.76C97.6308 69.9467 96.9908 71.7067 95.7108 73.04C94.4574 74.3467 92.4841 75 89.7908 75H80.7908ZM88.7908 51H84.2708V59.6H88.7908C90.1241 59.6 91.1241 59.2667 91.7908 58.6C92.4841 57.9067 92.8308 56.96 92.8308 55.76V54.8C92.8308 53.6267 92.4841 52.7067 91.7908 52.04C91.1241 51.3467 90.1241 51 88.7908 51ZM89.7908 62.8H84.2708V71.84H89.7908C91.2041 71.84 92.2574 71.48 92.9508 70.76C93.6708 70.04 94.0308 69.04 94.0308 67.76V66.8C94.0308 65.5733 93.6708 64.6 92.9508 63.88C92.2574 63.16 91.2041 62.8 89.7908 62.8ZM117.829 73.84C116.629 74.4267 115.429 74.8267 114.229 75.04C113.029 75.28 111.923 75.4 110.909 75.4C108.056 75.4 105.923 74.5867 104.509 72.96C103.123 71.3333 102.429 69.1067 102.429 66.28V63.88C102.429 61.1333 103.123 58.9333 104.509 57.28C105.923 55.6267 107.909 54.8 110.469 54.8C111.829 54.8 113.069 55.08 114.189 55.64C115.336 56.1733 116.243 57 116.909 58.12C117.603 59.2133 117.949 60.6267 117.949 62.36C117.949 63.48 117.789 64.76 117.469 66.2H105.669V66.28C105.669 68.3067 106.083 69.84 106.909 70.88C107.763 71.92 109.123 72.44 110.989 72.44C111.843 72.44 112.776 72.3333 113.789 72.12C114.829 71.9067 115.843 71.5733 116.829 71.12L117.829 73.84ZM110.469 57.68C108.923 57.68 107.749 58.1867 106.949 59.2C106.176 60.1867 105.749 61.5867 105.669 63.4H114.629C114.709 62.92 114.749 62.4667 114.749 62.04C114.749 60.5467 114.323 59.4533 113.469 58.76C112.643 58.04 111.643 57.68 110.469 57.68ZM128.465 72.48C131.132 72.48 132.465 71.5733 132.465 69.76C132.465 68.9867 132.225 68.3733 131.745 67.92C131.265 67.4667 130.385 67.08 129.105 66.76L126.905 66.2C125.279 65.8 124.065 65.1067 123.265 64.12C122.465 63.1067 122.065 61.9067 122.065 60.52C122.065 59.5067 122.292 58.5733 122.745 57.72C123.199 56.84 123.919 56.1333 124.905 55.6C125.892 55.0667 127.172 54.8 128.745 54.8C129.759 54.8 130.785 54.92 131.825 55.16C132.892 55.3733 133.972 55.7467 135.065 56.28L134.025 59.04C132.079 58.16 130.319 57.72 128.745 57.72C126.425 57.72 125.265 58.5867 125.265 60.32C125.265 60.9867 125.479 61.56 125.905 62.04C126.332 62.52 127.132 62.9067 128.305 63.2L130.505 63.76C132.265 64.1867 133.559 64.88 134.385 65.84C135.212 66.8 135.625 68.04 135.625 69.56C135.625 70.6533 135.385 71.6533 134.905 72.56C134.452 73.44 133.705 74.1333 132.665 74.64C131.652 75.1467 130.279 75.4 128.545 75.4C127.399 75.4 126.252 75.28 125.105 75.04C123.985 74.8 122.825 74.4133 121.625 73.88L122.505 71.16C123.652 71.6133 124.692 71.9467 125.625 72.16C126.559 72.3733 127.505 72.48 128.465 72.48ZM151.732 74.28C150.239 75.0267 148.652 75.4 146.972 75.4C145.532 75.4 144.399 75.1067 143.572 74.52C142.772 73.9333 142.199 73.1467 141.852 72.16C141.532 71.1733 141.372 70.08 141.372 68.88V58.08H137.932V55.2H141.372V49.68H144.652V55.2H151.132V58.08H144.652V68.76C144.652 70.1467 144.879 71.1067 145.332 71.64C145.812 72.1467 146.545 72.4 147.532 72.4C148.012 72.4 148.505 72.3467 149.012 72.24C149.545 72.1067 150.119 71.8933 150.732 71.6L151.732 74.28ZM170.407 73.84C169.207 74.4267 168.007 74.8267 166.807 75.04C165.607 75.28 164.501 75.4 163.487 75.4C160.634 75.4 158.501 74.5867 157.087 72.96C155.701 71.3333 155.007 69.1067 155.007 66.28V63.88C155.007 61.1333 155.701 58.9333 157.087 57.28C158.501 55.6267 160.487 54.8 163.047 54.8C164.407 54.8 165.647 55.08 166.767 55.64C167.914 56.1733 168.821 57 169.487 58.12C170.181 59.2133 170.527 60.6267 170.527 62.36C170.527 63.48 170.367 64.76 170.047 66.2H158.247V66.28C158.247 68.3067 158.661 69.84 159.487 70.88C160.341 71.92 161.701 72.44 163.567 72.44C164.421 72.44 165.354 72.3333 166.367 72.12C167.407 71.9067 168.421 71.5733 169.407 71.12L170.407 73.84ZM163.047 57.68C161.501 57.68 160.327 58.1867 159.527 59.2C158.754 60.1867 158.327 61.5867 158.247 63.4H167.207C167.287 62.92 167.327 62.4667 167.327 62.04C167.327 60.5467 166.901 59.4533 166.047 58.76C165.221 58.04 164.221 57.68 163.047 57.68ZM185.524 57.88C184.777 57.88 183.937 58.08 183.004 58.48C182.07 58.8533 180.897 59.6 179.484 60.72V75H176.204V55.2H179.324V57.96C180.737 56.7867 181.99 55.9733 183.084 55.52C184.177 55.04 185.257 54.8 186.324 54.8C187.577 54.8 188.617 55.0933 189.444 55.68C190.27 56.24 190.884 57.0533 191.284 58.12C192.75 56.8667 194.057 56 195.204 55.52C196.377 55.04 197.524 54.8 198.644 54.8C200.404 54.8 201.75 55.3867 202.684 56.56C203.617 57.7067 204.084 59.3467 204.084 61.48V75H200.804V61.96C200.804 59.24 199.817 57.88 197.844 57.88C197.097 57.88 196.244 58.08 195.284 58.48C194.35 58.8533 193.177 59.6 191.764 60.72C191.79 60.8267 191.804 60.9467 191.804 61.08C191.804 61.2133 191.804 61.3467 191.804 61.48V75H188.524V61.96C188.524 59.24 187.524 57.88 185.524 57.88ZM97.2556 123V95.8H105.256C107.869 95.8 109.789 96.44 111.016 97.72C112.269 98.9733 112.896 100.667 112.896 102.8V103.68C112.896 104.853 112.629 105.893 112.096 106.8C111.562 107.707 110.789 108.427 109.776 108.96C111.189 109.413 112.256 110.16 112.976 111.2C113.722 112.213 114.096 113.44 114.096 114.88V115.76C114.096 117.947 113.456 119.707 112.176 121.04C110.922 122.347 108.949 123 106.256 123H97.2556ZM105.256 99H100.736V107.6H105.256C106.589 107.6 107.589 107.267 108.256 106.6C108.949 105.907 109.296 104.96 109.296 103.76V102.8C109.296 101.627 108.949 100.707 108.256 100.04C107.589 99.3467 106.589 99 105.256 99ZM106.256 110.8H100.736V119.84H106.256C107.669 119.84 108.722 119.48 109.416 118.76C110.136 118.04 110.496 117.04 110.496 115.76V114.8C110.496 113.573 110.136 112.6 109.416 111.88C108.722 111.16 107.669 110.8 106.256 110.8ZM134.294 121.84C133.094 122.427 131.894 122.827 130.694 123.04C129.494 123.28 128.387 123.4 127.374 123.4C124.521 123.4 122.387 122.587 120.974 120.96C119.587 119.333 118.894 117.107 118.894 114.28V111.88C118.894 109.133 119.587 106.933 120.974 105.28C122.387 103.627 124.374 102.8 126.934 102.8C128.294 102.8 129.534 103.08 130.654 103.64C131.801 104.173 132.707 105 133.374 106.12C134.067 107.213 134.414 108.627 134.414 110.36C134.414 111.48 134.254 112.76 133.934 114.2H122.134V114.28C122.134 116.307 122.547 117.84 123.374 118.88C124.227 119.92 125.587 120.44 127.454 120.44C128.307 120.44 129.241 120.333 130.254 120.12C131.294 119.907 132.307 119.573 133.294 119.12L134.294 121.84ZM126.934 105.68C125.387 105.68 124.214 106.187 123.414 107.2C122.641 108.187 122.214 109.587 122.134 111.4H131.094C131.174 110.92 131.214 110.467 131.214 110.04C131.214 108.547 130.787 107.453 129.934 106.76C129.107 106.04 128.107 105.68 126.934 105.68ZM140.05 118.2V93.4H143.33V118.04C143.33 118.76 143.437 119.307 143.65 119.68C143.89 120.027 144.357 120.2 145.05 120.2H145.69V123.2H144.77C143.01 123.2 141.784 122.733 141.09 121.8C140.397 120.867 140.05 119.667 140.05 118.2ZM157.917 123.4C156.237 123.4 154.797 123.08 153.597 122.44L152.477 124.2H149.517L151.597 120.84C150.211 119.24 149.517 117.053 149.517 114.28V111.88C149.517 109.107 150.237 106.907 151.677 105.28C153.144 103.627 155.224 102.8 157.917 102.8C159.571 102.8 161.024 103.133 162.277 103.8L163.397 102H166.317L164.237 105.36C165.624 106.96 166.317 109.133 166.317 111.88V114.28C166.317 117.107 165.584 119.333 164.117 120.96C162.677 122.587 160.611 123.4 157.917 123.4ZM152.837 114.28C152.837 114.973 152.891 115.627 152.997 116.24C153.131 116.827 153.291 117.36 153.477 117.84L160.637 106.4C159.864 105.947 158.957 105.72 157.917 105.72C156.291 105.72 155.037 106.267 154.157 107.36C153.277 108.427 152.837 109.933 152.837 111.88V114.28ZM162.997 111.88C162.997 110.52 162.771 109.36 162.317 108.4L155.197 119.84C155.971 120.293 156.877 120.52 157.917 120.52C159.571 120.52 160.824 119.987 161.677 118.92C162.557 117.853 162.997 116.307 162.997 114.28V111.88ZM180.198 123.4C178.704 123.4 177.158 123.093 175.558 122.48V131.52H172.278V103.2H175.398V106C176.624 104.827 177.744 104 178.758 103.52C179.771 103.04 180.811 102.8 181.878 102.8C183.984 102.8 185.598 103.6 186.718 105.2C187.864 106.8 188.438 109.053 188.438 111.96V114.28C188.438 117.053 187.731 119.267 186.318 120.92C184.931 122.573 182.891 123.4 180.198 123.4ZM181.078 105.88C180.304 105.88 179.504 106.08 178.678 106.48C177.851 106.88 176.811 107.693 175.558 108.92V119.48C176.331 119.827 177.078 120.08 177.798 120.24C178.518 120.373 179.224 120.44 179.918 120.44C181.731 120.44 183.038 119.893 183.838 118.8C184.638 117.68 185.038 116.173 185.038 114.28V111.96C185.038 109.88 184.704 108.347 184.038 107.36C183.398 106.373 182.411 105.88 181.078 105.88Z" fill="black"/>
<path d="M781.409 73.12C780.635 73.6267 779.529 74.1333 778.089 74.64C776.675 75.1467 774.969 75.4 772.969 75.4C770.809 75.4 768.982 74.9467 767.489 74.04C766.022 73.1067 764.902 71.8133 764.129 70.16C763.382 68.48 763.009 66.5467 763.009 64.36V58.4C763.009 54.9867 763.862 52.3067 765.569 50.36C767.302 48.3867 769.809 47.4 773.089 47.4C774.289 47.4 775.542 47.5333 776.849 47.8C778.182 48.0667 779.502 48.5067 780.809 49.12L779.689 52.12C777.289 51.1333 775.102 50.64 773.129 50.64C770.942 50.64 769.302 51.3067 768.209 52.64C767.142 53.9467 766.609 55.8667 766.609 58.4V64.36C766.609 66.76 767.155 68.6667 768.249 70.08C769.342 71.4933 770.995 72.2 773.209 72.2C774.062 72.2 774.929 72.1067 775.809 71.92C776.715 71.7333 777.515 71.48 778.209 71.16V63.84H773.129V60.76H781.409V73.12ZM803.309 63.88V66.28C803.309 69.1067 802.576 71.3333 801.109 72.96C799.669 74.5867 797.603 75.4 794.909 75.4C792.243 75.4 790.176 74.5867 788.709 72.96C787.243 71.3333 786.509 69.1067 786.509 66.28V63.88C786.509 61.1067 787.229 58.9067 788.669 57.28C790.136 55.6267 792.216 54.8 794.909 54.8C797.603 54.8 799.669 55.6267 801.109 57.28C802.576 58.9067 803.309 61.1067 803.309 63.88ZM799.909 63.88C799.909 61.9867 799.483 60.5067 798.629 59.44C797.776 58.3467 796.536 57.8 794.909 57.8C793.309 57.8 792.069 58.3467 791.189 59.44C790.336 60.5067 789.909 61.9867 789.909 63.88V66.28C789.909 68.2533 790.336 69.7733 791.189 70.84C792.069 71.9067 793.309 72.44 794.909 72.44C796.536 72.44 797.776 71.9067 798.629 70.84C799.483 69.7733 799.909 68.2533 799.909 66.28V63.88ZM821.31 75V72.24C820.083 73.4133 818.963 74.24 817.95 74.72C816.963 75.1733 815.937 75.4 814.87 75.4C812.763 75.4 811.137 74.6 809.99 73C808.87 71.4 808.31 69.16 808.31 66.28V63.96C808.31 61.16 809.003 58.9333 810.39 57.28C811.803 55.6267 813.843 54.8 816.51 54.8C817.283 54.8 818.057 54.88 818.83 55.04C819.603 55.2 820.377 55.4267 821.15 55.72V45.4H824.43V75H821.31ZM811.71 66.28C811.71 68.36 812.03 69.8933 812.67 70.88C813.337 71.84 814.323 72.32 815.63 72.32C816.403 72.32 817.203 72.1333 818.03 71.76C818.857 71.36 819.897 70.5467 821.15 69.32V58.76C820.377 58.4133 819.63 58.1733 818.91 58.04C818.19 57.88 817.483 57.8 816.79 57.8C814.977 57.8 813.67 58.3467 812.87 59.44C812.097 60.5333 811.71 62.04 811.71 63.96V66.28ZM842.377 74.28C840.883 75.0267 839.297 75.4 837.617 75.4C836.177 75.4 835.043 75.1067 834.217 74.52C833.417 73.9333 832.843 73.1467 832.497 72.16C832.177 71.1733 832.017 70.08 832.017 68.88V58.08H828.577V55.2H832.017V49.68H835.297V55.2H841.777V58.08H835.297V68.76C835.297 70.1467 835.523 71.1067 835.977 71.64C836.457 72.1467 837.19 72.4 838.177 72.4C838.657 72.4 839.15 72.3467 839.657 72.24C840.19 72.1067 840.763 71.8933 841.377 71.6L842.377 74.28ZM861.172 75.2C859.945 75.2 858.959 74.92 858.212 74.36C857.492 73.8 856.985 73.1067 856.692 72.28C855.385 73.4267 854.199 74.24 853.132 74.72C852.065 75.1733 850.999 75.4 849.932 75.4C848.199 75.4 846.919 74.84 846.092 73.72C845.265 72.6 844.852 71.2267 844.852 69.6C844.852 68.5067 845.052 67.5333 845.452 66.68C845.852 65.8267 846.532 65.16 847.492 64.68C848.452 64.1733 849.745 63.92 851.372 63.92C852.092 63.92 852.879 63.9733 853.732 64.08C854.585 64.16 855.452 64.2667 856.332 64.4V61.72C856.332 60.2267 855.999 59.2133 855.332 58.68C854.692 58.12 853.745 57.84 852.492 57.84C850.785 57.84 848.879 58.3067 846.772 59.24L845.732 56.52C846.959 55.96 848.132 55.5333 849.252 55.24C850.372 54.9467 851.505 54.8 852.652 54.8C854.519 54.8 855.945 55.1067 856.932 55.72C857.919 56.3333 858.599 57.1467 858.972 58.16C859.345 59.1733 859.532 60.28 859.532 61.48V70.04C859.532 70.6533 859.652 71.1733 859.892 71.6C860.132 72 860.612 72.2 861.332 72.2H861.772V75.2H861.172ZM848.092 69.56C848.092 70.4667 848.305 71.2 848.732 71.76C849.159 72.32 849.772 72.6 850.572 72.6C851.265 72.6 852.065 72.4 852.972 72C853.879 71.5733 854.999 70.7333 856.332 69.48V66.96C854.519 66.6667 852.919 66.52 851.532 66.52C850.305 66.52 849.425 66.7733 848.892 67.28C848.359 67.7867 848.092 68.5467 848.092 69.56ZM890.809 63.88V66.28C890.809 69.1067 890.076 71.3333 888.609 72.96C887.169 74.5867 885.103 75.4 882.409 75.4C879.743 75.4 877.676 74.5867 876.209 72.96C874.743 71.3333 874.009 69.1067 874.009 66.28V63.88C874.009 61.1067 874.729 58.9067 876.169 57.28C877.636 55.6267 879.716 54.8 882.409 54.8C885.103 54.8 887.169 55.6267 888.609 57.28C890.076 58.9067 890.809 61.1067 890.809 63.88ZM887.409 63.88C887.409 61.9867 886.983 60.5067 886.129 59.44C885.276 58.3467 884.036 57.8 882.409 57.8C880.809 57.8 879.569 58.3467 878.689 59.44C877.836 60.5067 877.409 61.9867 877.409 63.88V66.28C877.409 68.2533 877.836 69.7733 878.689 70.84C879.569 71.9067 880.809 72.44 882.409 72.44C884.036 72.44 885.276 71.9067 886.129 70.84C886.983 69.7733 887.409 68.2533 887.409 66.28V63.88ZM912.61 77.48C912.61 79.4267 911.81 80.9867 910.21 82.16C908.637 83.3333 906.463 83.92 903.69 83.92C902.303 83.92 900.85 83.7333 899.33 83.36C897.837 82.9867 896.423 82.3867 895.09 81.56L896.21 79C897.543 79.7467 898.823 80.2667 900.05 80.56C901.303 80.88 902.517 81.04 903.69 81.04C905.503 81.04 906.903 80.7467 907.89 80.16C908.877 79.5733 909.37 78.7867 909.37 77.8C909.37 77.08 909.13 76.52 908.65 76.12C908.17 75.7467 907.397 75.56 906.33 75.56H901.73C899.997 75.56 898.743 75.1467 897.97 74.32C897.197 73.4933 896.81 72.5867 896.81 71.6C896.81 70.9067 896.97 70.2267 897.29 69.56C897.61 68.8667 898.063 68.1867 898.65 67.52C897.717 66.96 896.97 66.2 896.41 65.24C895.85 64.2533 895.57 63.0667 895.57 61.68C895.57 60.16 895.89 58.8933 896.53 57.88C897.197 56.8667 898.077 56.1067 899.17 55.6C900.263 55.0667 901.49 54.8 902.85 54.8H903.53C904.463 54.8 905.317 54.9333 906.09 55.2H913.21V58.12L908.89 57.52C909.45 58 909.903 58.6 910.25 59.32C910.597 60.0133 910.77 60.8667 910.77 61.88C910.77 63.32 910.437 64.5333 909.77 65.52C909.13 66.5067 908.263 67.2667 907.17 67.8C906.077 68.3067 904.863 68.56 903.53 68.56H902.85C902.503 68.56 902.17 68.5467 901.85 68.52C901.53 68.4667 901.21 68.4133 900.89 68.36C900.117 69.2133 899.73 70.0533 899.73 70.88C899.73 71.9467 900.477 72.48 901.97 72.48H906.45C908.37 72.48 909.877 72.9067 910.97 73.76C912.063 74.6133 912.61 75.8533 912.61 77.48ZM903.53 65.72C904.57 65.72 905.49 65.3867 906.29 64.72C907.09 64.0533 907.49 63.04 907.49 61.68C907.49 60.3467 907.09 59.3467 906.29 58.68C905.49 57.9867 904.57 57.64 903.53 57.64H902.85C901.783 57.64 900.85 57.9867 900.05 58.68C899.25 59.3467 898.85 60.3467 898.85 61.68C898.85 63.04 899.25 64.0533 900.05 64.72C900.85 65.3867 901.783 65.72 902.85 65.72H903.53ZM811.055 103.2L804.055 123H800.975L793.895 103.2H797.295L800.615 112.84L802.615 118.88L804.575 112.84L807.815 103.2H811.055ZM829.411 121.84C828.211 122.427 827.011 122.827 825.811 123.04C824.611 123.28 823.505 123.4 822.491 123.4C819.638 123.4 817.505 122.587 816.091 120.96C814.705 119.333 814.011 117.107 814.011 114.28V111.88C814.011 109.133 814.705 106.933 816.091 105.28C817.505 103.627 819.491 102.8 822.051 102.8C823.411 102.8 824.651 103.08 825.771 103.64C826.918 104.173 827.825 105 828.491 106.12C829.185 107.213 829.531 108.627 829.531 110.36C829.531 111.48 829.371 112.76 829.051 114.2H817.251V114.28C817.251 116.307 817.665 117.84 818.491 118.88C819.345 119.92 820.705 120.44 822.571 120.44C823.425 120.44 824.358 120.333 825.371 120.12C826.411 119.907 827.425 119.573 828.411 119.12L829.411 121.84ZM822.051 105.68C820.505 105.68 819.331 106.187 818.531 107.2C817.758 108.187 817.331 109.587 817.251 111.4H826.211C826.291 110.92 826.331 110.467 826.331 110.04C826.331 108.547 825.905 107.453 825.051 106.76C824.225 106.04 823.225 105.68 822.051 105.68ZM844.728 105.88C843.981 105.88 843.101 106.067 842.088 106.44C841.101 106.813 839.901 107.573 838.488 108.72V123H835.208V103.2H838.328V105.96C839.741 104.76 841.021 103.933 842.168 103.48C843.341 103.027 844.461 102.8 845.528 102.8C847.368 102.8 848.768 103.387 849.728 104.56C850.714 105.707 851.208 107.347 851.208 109.48V123H847.928V109.96C847.928 107.24 846.861 105.88 844.728 105.88ZM868.939 122.28C867.446 123.027 865.859 123.4 864.179 123.4C862.739 123.4 861.606 123.107 860.779 122.52C859.979 121.933 859.406 121.147 859.059 120.16C858.739 119.173 858.579 118.08 858.579 116.88V106.08H855.139V103.2H858.579V97.68H861.859V103.2H868.339V106.08H861.859V116.76C861.859 118.147 862.086 119.107 862.539 119.64C863.019 120.147 863.752 120.4 864.739 120.4C865.219 120.4 865.712 120.347 866.219 120.24C866.752 120.107 867.326 119.893 867.939 119.6L868.939 122.28ZM876.654 115.72H874.014L873.694 105.8V95.8H876.974V105.8L876.654 115.72ZM877.174 123H873.494V119.36H877.174V123Z" fill="black"/>
<path d="M460.82 98.28C462.5 98.28 463.793 97.92 464.7 97.2C465.606 96.4533 466.06 95.3733 466.06 93.96C466.06 92.7867 465.74 91.8 465.1 91C464.486 90.2 463.473 89.5867 462.06 89.16L458.82 88.2C456.793 87.5867 455.3 86.6667 454.34 85.44C453.38 84.1867 452.9 82.6533 452.9 80.84C452.9 79.4533 453.166 78.2 453.7 77.08C454.26 75.96 455.14 75.0667 456.34 74.4C457.566 73.7333 459.166 73.4 461.14 73.4C462.34 73.4 463.58 73.5467 464.86 73.84C466.14 74.1067 467.433 74.5467 468.74 75.16L467.62 78.16C466.34 77.6 465.18 77.2 464.14 76.96C463.126 76.6933 462.153 76.56 461.22 76.56C459.7 76.56 458.513 76.88 457.66 77.52C456.833 78.1333 456.42 79.16 456.42 80.6C456.42 81.64 456.7 82.52 457.26 83.24C457.82 83.9333 458.82 84.5067 460.26 84.96L463.5 85.92C467.553 87.12 469.58 89.7067 469.58 93.68C469.58 95.9733 468.886 97.84 467.5 99.28C466.113 100.693 463.886 101.4 460.82 101.4C459.566 101.4 458.233 101.253 456.82 100.96C455.433 100.64 453.993 100.147 452.5 99.48L453.58 96.52C454.993 97.16 456.26 97.6133 457.38 97.88C458.526 98.1467 459.673 98.28 460.82 98.28ZM484.174 101.4C483.081 101.4 482.067 101.267 481.134 101C480.227 100.76 479.401 100.413 478.654 99.96L477.414 102.2H474.334L476.614 98.12C475.094 96.2 474.334 93.6133 474.334 90.36V84.4C474.334 81.04 475.174 78.3733 476.854 76.4C478.561 74.4 481.001 73.4 484.174 73.4C485.267 73.4 486.267 73.5333 487.174 73.8C488.107 74.04 488.947 74.3867 489.694 74.84L490.934 72.6H494.014L491.734 76.68C493.254 78.6533 494.014 81.2267 494.014 84.4V90.36C494.014 93.7467 493.161 96.44 491.454 98.44C489.774 100.413 487.347 101.4 484.174 101.4ZM477.894 90.36C477.894 92.0133 478.134 93.4267 478.614 94.6L488.014 77.8C487.027 77 485.747 76.6 484.174 76.6C482.121 76.6 480.561 77.28 479.494 78.64C478.427 79.9733 477.894 81.8933 477.894 84.4V90.36ZM490.454 84.4C490.454 82.8 490.227 81.4 489.774 80.2L480.334 97C481.321 97.8267 482.601 98.24 484.174 98.24C486.227 98.24 487.787 97.56 488.854 96.2C489.921 94.8133 490.454 92.8667 490.454 90.36V84.4ZM516.232 101L508.472 88.16C507.912 88.7467 507.326 89.3467 506.712 89.96C506.126 90.5733 505.512 91.1867 504.872 91.8V101H501.392V73.8H504.872V87.92C507.379 85.3867 509.472 82.9867 511.152 80.72C512.832 78.4533 514.259 76.1467 515.432 73.8H519.192C517.992 76.1467 516.739 78.28 515.432 80.2C514.152 82.0933 512.686 83.9867 511.032 85.88L520.472 101H516.232Z" fill="black"/>
<defs>
<filter id="filter0_i_9_14" x="245" y="43.0337" width="155" height="93.9326" filterUnits="userSpaceOnUse" color-interpolation-filters="sRGB">
<feFlood flood-opacity="0" result="BackgroundImageFix"/>
<feBlend mode="normal" in="SourceGraphic" in2="BackgroundImageFix" result="shape"/>
<feColorMatrix in="SourceAlpha" type="matrix" values="0 0 0 0 0 0 0 0 0 0 0 0 0 0 0 0 0 0 127 0" result="hardAlpha"/>
<feOffset dy="4"/>
<feGaussianBlur stdDeviation="1.5"/>
<feComposite in2="hardAlpha" operator="arithmetic" k2="-1" k3="1"/>
<feColorMatrix type="matrix" values="0 0 0 0 0 0 0 0 0 0 0 0 0 0 0 0 0 0 0.2 0"/>
<feBlend mode="normal" in2="shape" result="effect1_innerShadow_9_14"/>
</filter>
<filter id="filter1_i_9_14" x="588" y="43.0337" width="155" height="93.9326" filterUnits="userSpaceOnUse" color-interpolation-filters="sRGB">
<feFlood flood-opacity="0" result="BackgroundImageFix"/>
<feBlend mode="normal" in="SourceGraphic" in2="BackgroundImageFix" result="shape"/>
<feColorMatrix in="SourceAlpha" type="matrix" values="0 0 0 0 0 0 0 0 0 0 0 0 0 0 0 0 0 0 127 0" result="hardAlpha"/>
<feOffset dy="4"/>
<feGaussianBlur stdDeviation="1.5"/>
<feComposite in2="hardAlpha" operator="arithmetic" k2="-1" k3="1"/>
<feColorMatrix type="matrix" values="0 0 0 0 0 0 0 0 0 0 0 0 0 0 0 0 0 0 0.2 0"/>
<feBlend mode="normal" in2="shape" result="effect1_innerShadow_9_14"/>
</filter>
</defs>
</svg>
